<svg width="143" height="97" viewBox="0 0 143 97" fill="none" xmlns="http://www.w3.org/2000/svg">
<path d="M36.4526 33.5273C34.1675 33.5273 32.1533 33.1758 30.4102 32.4727C28.6816 31.7549 27.3047 30.7368 26.2793 29.4185C25.2686 28.1001 24.6973 26.54 24.5654 24.7383L24.5435 24.4307H28.4985L28.5425 24.7383C28.7036 25.793 29.1357 26.7085 29.8389 27.4849C30.542 28.2466 31.4722 28.8398 32.6294 29.2646C33.8013 29.6748 35.1489 29.8799 36.6724 29.8799C38.1958 29.8799 39.5142 29.6675 40.6274 29.2427C41.7407 28.8032 42.5977 28.1807 43.1982 27.375C43.8135 26.5693 44.1211 25.6245 44.1211 24.5405V24.5186C44.1211 23.127 43.6377 22.0137 42.6709 21.1787C41.7041 20.3438 40.1294 19.6846 37.9468 19.2012L34.4312 18.4321C31.3403 17.7437 29.0479 16.689 27.5537 15.2681C26.0742 13.8325 25.3345 11.9575 25.3345 9.64307V9.62109C25.3491 7.87793 25.8325 6.34717 26.7847 5.02881C27.7368 3.6958 29.0479 2.65576 30.7178 1.90869C32.4023 1.14697 34.3286 0.766113 36.4966 0.766113C38.562 0.766113 40.4077 1.13965 42.0337 1.88672C43.6597 2.61914 44.9561 3.64453 45.9229 4.96289C46.9043 6.28125 47.4536 7.80469 47.5708 9.5332L47.5928 9.86279H43.6377L43.5938 9.55518C43.4326 8.47119 43.0371 7.54834 42.4072 6.78662C41.7773 6.0249 40.9497 5.43896 39.9243 5.02881C38.9136 4.61865 37.7344 4.41357 36.3867 4.41357C34.9805 4.41357 33.75 4.62598 32.6953 5.05078C31.6406 5.47559 30.8203 6.06885 30.2344 6.83057C29.6631 7.59229 29.3774 8.48584 29.3774 9.51123V9.5332C29.3774 10.8223 29.8682 11.8843 30.8496 12.7192C31.8311 13.5542 33.3545 14.1987 35.4199 14.6528L38.9355 15.4219C41.1035 15.8906 42.8613 16.5132 44.209 17.2896C45.5713 18.0659 46.5674 19.0327 47.1973 20.1899C47.8418 21.3325 48.1641 22.7095 48.1641 24.3208V24.3428C48.1641 26.2178 47.688 27.8438 46.7358 29.2207C45.7983 30.5977 44.4507 31.6597 42.6929 32.4067C40.9497 33.1538 38.8696 33.5273 36.4526 33.5273ZM59.1838 33.4395C57.0891 33.4395 55.5217 32.9414 54.4816 31.9453C53.4416 30.9492 52.9216 29.3599 52.9216 27.1772V13.3125H49.5817V10.1484H52.9216V3.97412H56.8767V10.1484H61.2272V13.3125H56.8767V27.1553C56.8767 28.3711 57.1403 29.1987 57.6677 29.6382C58.195 30.063 58.9714 30.2754 59.9968 30.2754C60.2312 30.2754 60.4509 30.2681 60.656 30.2534C60.8757 30.2241 61.0661 30.2021 61.2272 30.1875V33.2856C60.9929 33.3149 60.6853 33.3442 60.3044 33.3735C59.9382 33.4175 59.5647 33.4395 59.1838 33.4395ZM71.1264 33.4395C69.6176 33.4395 68.2919 33.1538 67.1493 32.5825C66.0067 32.0112 65.1132 31.2056 64.4687 30.1655C63.8388 29.1255 63.5238 27.917 63.5238 26.54V26.4961C63.5238 25.1924 63.8461 24.0645 64.4906 23.1123C65.1498 22.1602 66.0946 21.4058 67.3251 20.8491C68.5702 20.2925 70.0644 19.9629 71.8075 19.8604L80.267 19.377V22.3433L72.247 22.8267C70.7235 22.9146 69.537 23.2808 68.6874 23.9253C67.8524 24.5698 67.435 25.4268 67.435 26.4961V26.54C67.435 27.6387 67.8451 28.5103 68.6654 29.1548C69.5004 29.7993 70.6064 30.1216 71.9833 30.1216C73.1845 30.1216 74.2611 29.8726 75.2133 29.3745C76.1801 28.8618 76.9418 28.166 77.4984 27.2871C78.0697 26.4082 78.3554 25.4194 78.3554 24.3208V17.5752C78.3554 16.1836 77.9159 15.0923 77.037 14.3013C76.1728 13.4956 74.9423 13.0928 73.3456 13.0928C71.8808 13.0928 70.6942 13.415 69.786 14.0596C68.8925 14.6895 68.3358 15.5171 68.1161 16.5425L68.0722 16.7402H64.3808L64.4027 16.4985C64.5199 15.2388 64.9447 14.0962 65.6772 13.0708C66.4242 12.0454 67.4496 11.2324 68.7533 10.6318C70.057 10.0166 71.6024 9.70898 73.3896 9.70898C75.1913 9.70898 76.744 10.0166 78.0478 10.6318C79.3661 11.2471 80.3842 12.1187 81.102 13.2466C81.8197 14.3599 82.1786 15.6782 82.1786 17.2017V33H78.3554V29.2866H78.2675C77.828 30.1216 77.2421 30.854 76.5097 31.4839C75.7773 32.0991 74.9496 32.5825 74.0268 32.9341C73.1186 33.271 72.1518 33.4395 71.1264 33.4395ZM86.5846 33V10.1484H90.4078V14.0156H90.4957C90.8766 12.6973 91.5357 11.6499 92.4732 10.8735C93.4107 10.0972 94.524 9.70898 95.8131 9.70898C96.15 9.70898 96.4503 9.73096 96.714 9.7749C96.9923 9.8042 97.2047 9.8335 97.3512 9.86279V13.5762C97.2047 13.5176 96.941 13.4663 96.5602 13.4224C96.1939 13.3784 95.7765 13.3564 95.3077 13.3564C94.3263 13.3564 93.462 13.5762 92.7149 14.0156C91.9825 14.4551 91.4112 15.0923 91.0011 15.9272C90.6056 16.7476 90.4078 17.7363 90.4078 18.8936V33H86.5846ZM108.547 33.4395C106.452 33.4395 104.885 32.9414 103.845 31.9453C102.804 30.9492 102.284 29.3599 102.284 27.1772V13.3125H98.9446V10.1484H102.284V3.97412H106.24V10.1484H110.59V13.3125H106.24V27.1553C106.24 28.3711 106.503 29.1987 107.031 29.6382C107.558 30.063 108.334 30.2754 109.36 30.2754C109.594 30.2754 109.814 30.2681 110.019 30.2534C110.239 30.2241 110.429 30.2021 110.59 30.1875V33.2856C110.356 33.3149 110.048 33.3442 109.667 33.3735C109.301 33.4175 108.928 33.4395 108.547 33.4395ZM12.4857 96.5273C10.2006 96.5273 8.18642 96.1758 6.44326 95.4727C4.71474 94.7549 3.33779 93.7368 2.3124 92.4185C1.30166 91.1001 0.73037 89.54 0.598534 87.7383L0.576561 87.4307H4.53164L4.57558 87.7383C4.73672 88.793 5.16885 89.7085 5.87197 90.4849C6.5751 91.2466 7.50527 91.8398 8.6625 92.2646C9.83437 92.6748 11.182 92.8799 12.7055 92.8799C14.2289 92.8799 15.5473 92.6675 16.6605 92.2427C17.7738 91.8032 18.6308 91.1807 19.2313 90.375C19.8466 89.5693 20.1542 88.6245 20.1542 87.5405V87.5186C20.1542 86.127 19.6708 85.0137 18.704 84.1787C17.7372 83.3438 16.1625 82.6846 13.9799 82.2012L10.4643 81.4321C7.37344 80.7437 5.08096 79.689 3.58681 78.2681C2.10732 76.8325 1.36758 74.9575 1.36758 72.6431V72.6211C1.38223 70.8779 1.86562 69.3472 2.81777 68.0288C3.76992 66.6958 5.08096 65.6558 6.75088 64.9087C8.43545 64.147 10.3617 63.7661 12.5297 63.7661C14.5951 63.7661 16.4408 64.1396 18.0668 64.8867C19.6928 65.6191 20.9892 66.6445 21.956 67.9629C22.9374 69.2812 23.4867 70.8047 23.6039 72.5332L23.6259 72.8628H19.6708L19.6269 72.5552C19.4657 71.4712 19.0702 70.5483 18.4403 69.7866C17.8104 69.0249 16.9828 68.439 15.9574 68.0288C14.9467 67.6187 13.7675 67.4136 12.4198 67.4136C11.0136 67.4136 9.7831 67.626 8.72842 68.0508C7.67373 68.4756 6.85342 69.0688 6.26748 69.8306C5.69619 70.5923 5.41055 71.4858 5.41055 72.5112V72.5332C5.41055 73.8223 5.90127 74.8843 6.88271 75.7192C7.86416 76.5542 9.3876 77.1987 11.453 77.6528L14.9687 78.4219C17.1366 78.8906 18.8944 79.5132 20.2421 80.2896C21.6044 81.0659 22.6005 82.0327 23.2304 83.1899C23.8749 84.3325 24.1972 85.7095 24.1972 87.3208V87.3428C24.1972 89.2178 23.7211 90.8438 22.7689 92.2207C21.8314 93.5977 20.4838 94.6597 18.726 95.4067C16.9828 96.1538 14.9027 96.5273 12.4857 96.5273ZM37.1944 96.4395C35.0118 96.4395 33.1295 95.9561 31.5475 94.9893C29.9801 94.0225 28.7716 92.6602 27.922 90.9023C27.087 89.1299 26.6695 87.0498 26.6695 84.6621V84.6401C26.6695 82.2817 27.0943 80.209 27.9439 78.4219C28.7935 76.6201 29.9874 75.2212 31.5255 74.2251C33.0636 73.2144 34.8727 72.709 36.9527 72.709C39.0328 72.709 40.8199 73.1924 42.3141 74.1592C43.8228 75.1113 44.9801 76.4517 45.7857 78.1802C46.5914 79.9087 46.9942 81.9155 46.9942 84.2007V85.6069H28.5811V82.6187H45.1046L43.171 85.3872V83.915C43.171 82.1426 42.9 80.6777 42.358 79.5205C41.8307 78.3633 41.0982 77.5063 40.1607 76.9497C39.2232 76.3784 38.1466 76.0928 36.9308 76.0928C35.7149 76.0928 34.6236 76.3931 33.6568 76.9937C32.69 77.5796 31.9283 78.4585 31.3717 79.6304C30.815 80.7876 30.5367 82.2158 30.5367 83.915V85.3872C30.5367 86.9985 30.8077 88.3755 31.3497 89.5181C31.9063 90.6606 32.69 91.5396 33.7008 92.1548C34.7115 92.7554 35.9054 93.0557 37.2823 93.0557C38.2491 93.0557 39.1134 92.9092 39.8751 92.6162C40.6368 92.3232 41.274 91.9204 41.7867 91.4077C42.2994 90.895 42.6656 90.3091 42.8853 89.6499L42.9513 89.4521H46.7086L46.6646 89.6719C46.4742 90.6094 46.108 91.4883 45.566 92.3086C45.0387 93.1289 44.3575 93.854 43.5226 94.4839C42.6876 95.0991 41.7354 95.5825 40.6661 95.9341C39.5968 96.271 38.4395 96.4395 37.1944 96.4395ZM58.5193 96.4395C56.7322 96.4395 55.1868 96.1538 53.8831 95.5825C52.5794 95.0112 51.5467 94.2129 50.785 93.1875C50.0379 92.1621 49.5838 90.9683 49.4227 89.606L49.4007 89.4082H53.2239L53.2679 89.6279C53.5022 90.7705 54.0516 91.6641 54.9158 92.3086C55.7801 92.9385 56.9886 93.2534 58.5413 93.2534C59.5813 93.2534 60.4676 93.1216 61.2 92.8579C61.9324 92.5796 62.4964 92.1914 62.8919 91.6934C63.2874 91.1807 63.4852 90.5801 63.4852 89.8916V89.8696C63.4852 89.0493 63.2361 88.3901 62.7381 87.8921C62.24 87.394 61.3392 86.9839 60.0354 86.6616L56.41 85.7827C54.9744 85.4312 53.7806 84.9771 52.8284 84.4204C51.8909 83.8491 51.1878 83.1533 50.719 82.333C50.2503 81.5127 50.0159 80.5532 50.0159 79.4546V79.4326C50.0159 78.1143 50.3675 76.9497 51.0706 75.939C51.7884 74.9282 52.7771 74.1372 54.0369 73.5659C55.3113 72.9946 56.7688 72.709 58.4095 72.709C60.0794 72.709 61.5296 73.0093 62.7601 73.6099C64.0052 74.1958 64.9793 75.0015 65.6824 76.0269C66.4002 77.0376 66.803 78.1802 66.8909 79.4546L66.9129 79.7402H63.2654L63.2435 79.5864C63.097 78.4731 62.6062 77.5796 61.7713 76.9058C60.951 76.2319 59.8304 75.895 58.4095 75.895C57.4866 75.895 56.6883 76.0342 56.0145 76.3125C55.3406 76.5908 54.8206 76.9863 54.4544 77.499C54.1028 77.9971 53.927 78.583 53.927 79.2568V79.2788C53.927 79.7915 54.0442 80.2603 54.2786 80.6851C54.5276 81.0952 54.9158 81.4541 55.4432 81.7617C55.9705 82.0693 56.6517 82.3257 57.4866 82.5308L61.1121 83.4097C63.4266 83.9663 65.0525 84.7354 65.99 85.7168C66.9275 86.6836 67.3963 87.98 67.3963 89.606V89.6279C67.3963 90.9609 67.0081 92.1401 66.2317 93.1655C65.47 94.1909 64.4153 94.9966 63.0677 95.5825C61.7347 96.1538 60.2186 96.4395 58.5193 96.4395ZM79.0312 96.4395C77.2441 96.4395 75.6987 96.1538 74.395 95.5825C73.0913 95.0112 72.0586 94.2129 71.2969 93.1875C70.5498 92.1621 70.0957 90.9683 69.9346 89.606L69.9126 89.4082H73.7358L73.7798 89.6279C74.0142 90.7705 74.5635 91.6641 75.4277 92.3086C76.292 92.9385 77.5005 93.2534 79.0532 93.2534C80.0933 93.2534 80.9795 93.1216 81.7119 92.8579C82.4443 92.5796 83.0083 92.1914 83.4038 91.6934C83.7993 91.1807 83.9971 90.5801 83.9971 89.8916V89.8696C83.9971 89.0493 83.748 88.3901 83.25 87.8921C82.752 87.394 81.8511 86.9839 80.5474 86.6616L76.9219 85.7827C75.4863 85.4312 74.2925 84.9771 73.3403 84.4204C72.4028 83.8491 71.6997 83.1533 71.231 82.333C70.7622 81.5127 70.5278 80.5532 70.5278 79.4546V79.4326C70.5278 78.1143 70.8794 76.9497 71.5825 75.939C72.3003 74.9282 73.2891 74.1372 74.5488 73.5659C75.8232 72.9946 77.2808 72.709 78.9214 72.709C80.5913 72.709 82.0415 73.0093 83.272 73.6099C84.5171 74.1958 85.4912 75.0015 86.1943 76.0269C86.9121 77.0376 87.3149 78.1802 87.4028 79.4546L87.4248 79.7402H83.7773L83.7554 79.5864C83.6089 78.4731 83.1182 77.5796 82.2832 76.9058C81.4629 76.2319 80.3423 75.895 78.9214 75.895C77.9985 75.895 77.2002 76.0342 76.5264 76.3125C75.8525 76.5908 75.3325 76.9863 74.9663 77.499C74.6147 77.9971 74.439 78.583 74.439 79.2568V79.2788C74.439 79.7915 74.5562 80.2603 74.7905 80.6851C75.0396 81.0952 75.4277 81.4541 75.9551 81.7617C76.4824 82.0693 77.1636 82.3257 77.9985 82.5308L81.624 83.4097C83.9385 83.9663 85.5645 84.7354 86.502 85.7168C87.4395 86.6836 87.9082 87.98 87.9082 89.606V89.6279C87.9082 90.9609 87.52 92.1401 86.7437 93.1655C85.9819 94.1909 84.9272 94.9966 83.5796 95.5825C82.2466 96.1538 80.7305 96.4395 79.0312 96.4395ZM91.6769 96V73.1484H95.5002V96H91.6769ZM93.5886 69.2812C92.9294 69.2812 92.3654 69.0469 91.8967 68.5781C91.4279 68.1094 91.1935 67.5454 91.1935 66.8862C91.1935 66.2124 91.4279 65.6484 91.8967 65.1943C92.3654 64.7256 92.9294 64.4912 93.5886 64.4912C94.2624 64.4912 94.8264 64.7256 95.2805 65.1943C95.7492 65.6484 95.9836 66.2124 95.9836 66.8862C95.9836 67.5454 95.7492 68.1094 95.2805 68.5781C94.8264 69.0469 94.2624 69.2812 93.5886 69.2812ZM109.728 96.4395C107.619 96.4395 105.766 95.9561 104.169 94.9893C102.587 94.0225 101.349 92.6528 100.455 90.8804C99.5766 89.0933 99.1371 86.9912 99.1371 84.5742V84.5303C99.1371 82.0986 99.5766 80.0039 100.455 78.2461C101.349 76.4736 102.587 75.1113 104.169 74.1592C105.766 73.1924 107.611 72.709 109.706 72.709C111.815 72.709 113.661 73.1924 115.243 74.1592C116.84 75.1113 118.078 76.4736 118.956 78.2461C119.85 80.0039 120.297 82.0986 120.297 84.5303V84.5742C120.297 87.0059 119.85 89.1079 118.956 90.8804C118.078 92.6528 116.847 94.0225 115.265 94.9893C113.683 95.9561 111.837 96.4395 109.728 96.4395ZM109.75 93.0557C111.098 93.0557 112.262 92.7261 113.244 92.0669C114.24 91.3931 115.009 90.4263 115.551 89.1665C116.107 87.8921 116.386 86.3613 116.386 84.5742V84.5303C116.386 82.7432 116.107 81.2197 115.551 79.96C115.009 78.7002 114.232 77.7407 113.222 77.0815C112.225 76.4224 111.054 76.0928 109.706 76.0928C108.388 76.0928 107.223 76.4297 106.212 77.1035C105.216 77.7627 104.44 78.7222 103.883 79.9819C103.327 81.2271 103.048 82.7432 103.048 84.5303V84.5742C103.048 86.3613 103.327 87.8921 103.883 89.1665C104.44 90.4263 105.216 91.3931 106.212 92.0669C107.223 92.7261 108.402 93.0557 109.75 93.0557ZM123.714 96V73.1484H127.537V76.4004H127.625C128.24 75.3311 129.134 74.4521 130.306 73.7637C131.478 73.0605 132.928 72.709 134.656 72.709C137.161 72.709 139.102 73.4707 140.479 74.9941C141.871 76.5029 142.566 78.561 142.566 81.1685V96H138.743V81.8496C138.743 79.9893 138.304 78.5684 137.425 77.5869C136.561 76.5908 135.25 76.0928 133.492 76.0928C132.291 76.0928 131.243 76.3638 130.35 76.9058C129.456 77.4331 128.76 78.1802 128.262 79.147C127.779 80.1138 127.537 81.249 127.537 82.5527V96H123.714Z" fill="black"/>
</svg>
